{"scene":0,"scenes":[{"nodes":[0]}],"asset":{"version":"2.0","generator":"https://github.com/mikedh/trimesh"},"accessors":[{"componentType":5125,"type":"SCALAR","bufferView":0,"count":217500,"max":[36229],"min":[0]},{"componentType":5126,"type":"VEC3","byteOffset":0,"bufferView":1,"count":36230,"max":[0.9876577258110046,0.9898803234100342,0.5526009798049927],"min":[-0.9906914830207825,-0.9885377287864685,-0.5563851594924927]},{"componentType":5121,"normalized":true,"type":"VEC4","byteOffset":0,"bufferView":2,"count":36230,"max":[246,245,247,255],"min":[112,110,109,255]}],"meshes":[{"name":"fan_1749581533.obj","extras":{"processed":true,"file_path":"/project/static/models/fan_1749581533.obj","file_name":"fan_1749581533.obj"},"primitives":[{"attributes":{"POSITION":1,"COLOR_0":2},"indices":0,"mode":4}]}],"nodes":[{"name":"world","children":[1]},{"name":"fan_1749581533.obj","mesh":0}],"buffers":[{"uri":"gltf_buffer_0.bin","byteLength":870000},{"uri":"gltf_buffer_1.bin","byteLength":434760},{"uri":"gltf_buffer_2.bin","byteLength":144920}],"bufferViews":[{"buffer":0,"byteOffset":0,"byteLength":870000},{"buffer":1,"byteOffset":0,"byteLength":434760},{"buffer":2,"byteOffset":0,"byteLength":144920}]}