{"scene":0,"scenes":[{"nodes":[0]}],"asset":{"version":"2.0","generator":"https://github.com/mikedh/trimesh"},"accessors":[{"componentType":5125,"type":"SCALAR","bufferView":0,"count":224364,"max":[37367],"min":[0]},{"componentType":5126,"type":"VEC3","byteOffset":0,"bufferView":1,"count":37368,"max":[0.8031120300292969,0.9918200969696045,0.42769506573677063],"min":[-0.5556156039237976,-0.9918145537376404,-0.42593058943748474]},{"componentType":5121,"normalized":true,"type":"VEC4","byteOffset":0,"bufferView":2,"count":37368,"max":[229,230,227,255],"min":[0,0,0,255]}],"meshes":[{"name":"Laptop_1749578333.obj","extras":{"processed":true,"file_path":"/project/static/models/Laptop_1749578333.obj","file_name":"Laptop_1749578333.obj"},"primitives":[{"attributes":{"POSITION":1,"COLOR_0":2},"indices":0,"mode":4}]}],"nodes":[{"name":"world","children":[1]},{"name":"Laptop_1749578333.obj","mesh":0}],"buffers":[{"uri":"gltf_buffer_0.bin","byteLength":897456},{"uri":"gltf_buffer_1.bin","byteLength":448416},{"uri":"gltf_buffer_2.bin","byteLength":149472}],"bufferViews":[{"buffer":0,"byteOffset":0,"byteLength":897456},{"buffer":1,"byteOffset":0,"byteLength":448416},{"buffer":2,"byteOffset":0,"byteLength":149472}]}